<?xml version="1.0" encoding="UTF-8"?>
<svg width="210mm" height="297mm" version="1.1" viewBox="0 0 744.09448819 1052.3622047" xmlns="http://www.w3.org/2000/svg">
 <path d="m446.54 933.44c-79.15-1.962-158.4-0.66869-237.51-4.2211-20.952-20.99-34.585-40.726-26.402-72.744-6.2977-25.271 13.956-51.325 0.0947-72.549 0.20927-25.92 0.41855-51.841 0.62783-77.761-36.813-15.486-69.275-43.247-85.122-80.413 9.8878-34.995-18.426-59.306-26.397-91.849 2.6158-30.084 9.6632-61.375 18.311-90.924 9.3765-32.368-56.421-48.774-28.39-82.738 0.43687-34.303-18.234-71.166-5.9236-103.7 20.063-3.9586 46.876 1.6609 64.499 14.91 29.456 12.682 53.069 36.835 85.985 39.892 30.185-10.607 36.107 25.826 68.817 19.662 21.014 12.477 31.334-12.029 51.701-6.3242 33.183 0.44985 68.795-1.8054 96.821 19.404 26.057 4.3818 61.107 36.724 77.148 1.6041 19.548-11.673 59.179-4.7475 81.26-27.467 28.566-12.228 53.453-36.085 86.569-33.622 30.055-3.5345 12.096 42.372 11.572 58.916-7.8089 26.909-1.0958 52.38-1.6708 76.434-20.067 20.354-35.183 40.244-44.485 66.607-33.52 24.553 0.49395 64.038-15.452 97.251-8.3473 40.083-37.734 69.109-62.606 99.522-12.039 28.189-20.094 58.455-37.459 84.364-12.131 14.672-7.1967 34.247-9.4365 51.76 1.2829 23.673-16.534 78.209 25.221 54.005 29.532-11.274 52.967-32.843 68.747-59.697 28.202-18.925 0.87062-59.455 5.9908-88.858-8.2287-13.963-13.528-73.252 12.645-41.99 19.254 25.976 46.372 46.875 60.029 75.078 24.82 4.4489 29.82 33.388 42.265 51.991-13.585 17.456 9.3133 36.825-3.5688 52.668-16.601 25.797-36.983 56.116-71.557 54.885-20.662 6.1782-39.623 5.1578-60.551 11.391-47.219 2.0042-94.59 3.4514-141.77 4.5141zm97.563-13.176c16.685-1.0768 34.219 0.59617 50.386-2.1562 25.096-18.726 60.913-1.3942 85.885-23.278 20.476-20.213 40.544-43.57 27.548-72.326 9.315-39.832-40.762-50.088-49.211-80.636-14.095-13.866-34.754-37.931-44.663-45.611 10.275 31.548 6.2517 65.461 15.053 96.976-8.862 30.688-37.301 57.58-63.64 77.07-23.647 19.019-86.184 37.429-68.533-14.407 2.205-27.455 1.4302-55.777 4.9334-82.859 17.81-29.076 32.113-59.917 41.888-92.575 23.642-30.865 53.562-58.655 63.595-97.7 19.679-29.376-17.981-69.685 4.692-93.113 27.314-18.196 22.636-55.665 53.725-72.128-8.1332-19.615 2.9424-58.768 5.5321-88.294 10.553-23.792 0.62651-43.931-27.342-30.696-28.547 15.304-56.258 32.462-85.819 45.706-16.031 5.183-30.999 15.314-45.686 7.4904-14.349 34.22-49.417 23.42-76.253 9.2901-33.996-16.235-69.423-31.522-108.51-26.004-24.08 14.92-51.053 4.625-77.717 8.5655-18.276-3.9538-25.183-32.775-42.455-14.328-29.815-9.7055-56.148-27.765-84.173-42.24-18.202-15.908-77.801-38.332-59.103 7.6325-1.2147 28.567 22.474 66.149 4.4948 89.341 17.913 21.055 51.202 48.176 28.991 77.885-8.6189 31.509-23.856 68.05-3.0985 98.045 25.275 25.981 3.3718 62.897 30.101 86.644 14.892 27.859 46.772 36.475 69.39 55.157 0.87757 25.73-2.0868 52.464-0.44673 77.614 17.349 24.816-8.8041 52.627-0.33001 81.814 1.1402 11.07-2.6078 25.365 1.5152 34.467 15.773 15.707 26.301 33.808 52.432 23.967 29.666-2.5594-38.915 0.13572-22.322-26.534 16.406-22.017 32.714-48.819 11.363-77.008 13.215-32.649-2.2052-58.579-15.311-87.7-8.5828-22.524 15.179-36.968 35.215-27.736 9.751 15.038 36.048 24.506 36.394 43.794-1.5657 16.102-5.4904 32.166 8.7618 43.43 9.387 13.292 30.54 16.917 10.332 36.526-6.6416 28.908 30.93 41.471 29.174 69.189 25.565 38.061-34.514 20.708-52.419 25.75 85.032 3.647 170.49 1.6107 255.63 0.9739zm-136.89-1.5461c-25.087 4.6075-66.411-6.6545-39.837-33.812-0.20585-26.754 37.844-49.86 15.187-77.165-18.362 5.442-45.49-11.752-58.996-31.939-32.221-29.429 7.351-64.478 40.537-49.69 27.884-14.291 51.735 17.008 72.797-11.474 21.574-19.829 53.481-11.336 45.154 20.945-4.4444 21.648-30.31 39.458-17.945 63.499 24.027 26.447-32.033 49.47 2.2149 74.399-5.58 15.578-0.72977 21.963 7.5525 37.295-13.148 15.805-46.374 4.759-66.664 7.942zm45.37-11.818c20.561-12.642-47.814 1.8291-13.047 1.6424l6.919-0.68591 6.1281-0.95644v-4e-5zm-73.035-1.3571c11.222 0.93924 66.664 3.3325 32.066-9.2019-5.1797 8.4832-61.213 1.6488-32.066 9.2019zm64.5-15.43c-7.8725-3.74-7.8726 3.74 0 0zm7.4666-11.935c8.702-2.2895-26.178-23.837-7.0006-38.511 21.638-29.83-30.626-20.783-46.654-30.684 22.954 22.602-16.342 49.925-12.615 67.994 22.005 1.7824 44.221 2.5277 66.269 1.2009zm-1.0177-82.559c-12.697-26.477 39.012-63.67 10.362-78.442-31.562 8.0423-44.544 34.944-36.936 64.217-25.643 13.692 35.771 29.487 26.574 14.225zm-64.701-13.607c35.001-20.652 14.874-63.879-21.282-43.464-14.831-3.5162-48.178-8.9184-38.803 17.866 13.013 17.518 40.431 58.779 60.085 25.598zm13.494 8.3545c13.384-5.4488 19.822-28.207 3.9094-7.1153-7.6826 2.0756-13.504 21.367-3.9094 7.1153zm-18.127-87.799c-29.013-3.471-65.223 4.4631-80.283-23.008-33.869 0.27382-66.864-7.9896-97.636-21.662-27.645-18.611-55.864-43.419-57.3-79.345-4.8015-53.115 29.563-105.94 76.721-128.28 24.346-18.564 55.285-26.258 84.613-32.564 32.724-13.259 69.011-4.775 101.93 3.606 51.93 16.08 103.44 46.022 129.9 95.61 18.756 31.497 17.241 72.939 3.3333 105.98-11.576 29.719-42.414 45.944-72.401 50.825-28.927 10.984-69.462-0.38288-83.049 28.916l-5.8235-0.0772zm-2.6938-12.653c6.7576-8.1763 4.7857-26.805 25.539-17.642 38.741-2.809 80.892-7.3227 111.56-33.482 39.556-40.108 30.06-109.04-8.7178-146.27-20.378-24.504-50.866-33.921-74.943-50.065-31.976-12.808-66.646-23.081-101.53-18.643-26.815 9.1614-52.713 13.878-79.325 23.738-28.184 13.883-55.166 33.602-75.21 59.113-17.515 30.772-28.921 72.69-5.9148 104.06 19.483 25.754 47.537 44.646 79.562 50.722 24.81 14.332 70.204-7.8321 76.35 26.597 17.471 1.0811 35.141 2.7164 52.634 1.8765zm-32.483-37.612c-30.271-10.302-21.637-35.399 9.107-24.608 33.578-5.1963 11.854 34.19-9.107 24.608zm-92.088-27.848c-30.213-0.077-47.717-37.89-42.083-63.272 6.4127-39.144 48.178-41.57 79.544-33.956 25.053 12.754 28.551 50.319 15.801 71.802-10.023 18.069-32.968 30.295-53.262 25.425zm165.26 0.8825c-25.857-4.5746-43.154-31.713-40.959-58.178 2.0903-35.856 37.876-53.344 69.767-43.638 28.35 9.384 42.797 49.043 24.101 74.484-9.5869 16.758-34.218 28.299-52.908 27.332zm-133.33 281.35c13.616-2.7884 70.749 1.0721 33.495-6.9861-16.934 8.9056-29.548-12.587-47.253 0.92213-11.302-9.2256-54.282-3.6625-19.328 2.9024 10.554 3.791 22.014 8.2126 33.086 3.1616zm24.21-31.274c-8.5328-19.854-14.786-55.344-6.0418-66.945-18.256 8.8752-72.56-3.0748-45.559 28.101 14.789 17.24-20.267 45.815 17.808 39.541 11.049-0.2642 23.203 2.8817 33.793-0.69706zm15.04 0.0824c-5.652-5.5906-6.1962 5.5498 0 0zm-48.845-78.778c23.364 1.1576-3.7857-22.264 2.9992-35.623 5.5161-21.518-39.003-72.454-48.158-38.821 11.69 23.456 24.418 58.053 27.872 75.064 5.7692 0.0384 11.531-0.27224 17.287-0.61917z"/>
</svg>
