<?xml version="1.0" encoding="UTF-8"?>
<svg version="1.1" viewBox="0 0 2000 2000" xmlns="http://www.w3.org/2000/svg">
 <g transform="translate(0 947.64)">
  <g transform="matrix(3.4699 0 0 3.4699 117.43 -2713)" fill-rule="evenodd">
   <circle transform="rotate(-90)" cx="-796.79" cy="254.58" r="247.5" fill="#fff" stroke="#045" stroke-linecap="round" stroke-width="5"/>
   <rect x="115.25" y="752.37" width="266.64" height="22.941" ry=".23234" fill="#0a8" stroke="#045" stroke-linecap="round" stroke-width="5"/>
   <rect transform="matrix(0,-1,-1,0,0,0)" x="-914.25" y="-129.25" width="138.94" height="13.994" ry=".14172" fill="#0a8" stroke="#045" stroke-linecap="round" stroke-width="5"/>
   <g transform="translate(0 -1.9883)">
    <rect transform="scale(1,-1)" x="296.36" y="-711.02" width="5.7304" height="40.423" ry=".056114" fill="#0a8" stroke="#045" stroke-linecap="round" stroke-width="3"/>
    <g transform="matrix(.3689 0 0 .36523 274.51 411.41)" stroke-width="8.1731">
     <rect x="86.408" y="704.79" width="24.272" height="154.18" ry=".18599" fill="#0cf" stroke="#045" stroke-linecap="round" stroke-width="8.1731"/>
     <rect x="96.191" y="729.3" width="12.621" height="1" ry=".065943" fill="#0cf" stroke="#045" stroke-linecap="round" stroke-width="8.1731"/>
     <rect transform="scale(1,-1)" x="94.462" y="-713.77" width="16.08" height="3" ry=".14837" fill="#045"/>
     <rect transform="scale(1,-1)" x="94.462" y="-722.53" width="16.08" height="3" ry=".14837" fill="#045"/>
     <rect x="96.191" y="755.6" width="12.621" height="1" ry=".065943" fill="#0cf" stroke="#045" stroke-linecap="round" stroke-width="8.1731"/>
     <rect transform="scale(1,-1)" x="94.462" y="-740.07" width="16.08" height="3" ry=".14837" fill="#045"/>
     <rect transform="scale(1,-1)" x="94.462" y="-748.83" width="16.08" height="3" ry=".14837" fill="#045"/>
     <rect x="96.191" y="781.3" width="12.621" height="1" ry=".065943" fill="#0cf" stroke="#045" stroke-linecap="round" stroke-width="8.1731"/>
     <rect transform="scale(1,-1)" x="94.462" y="-765.77" width="16.08" height="3" ry=".14837" fill="#045"/>
     <rect transform="scale(1,-1)" x="94.462" y="-774.53" width="16.08" height="3" ry=".14837" fill="#045"/>
     <rect x="96.191" y="807.6" width="12.621" height="1" ry=".065943" fill="#0cf" stroke="#045" stroke-linecap="round" stroke-width="8.1731"/>
     <rect transform="scale(1,-1)" x="94.462" y="-792.07" width="16.08" height="3" ry=".14837" fill="#045"/>
     <rect transform="scale(1,-1)" x="94.462" y="-800.83" width="16.08" height="3" ry=".14837" fill="#045"/>
     <rect x="96.191" y="833.3" width="12.621" height="1" ry=".065943" fill="#0cf" stroke="#045" stroke-linecap="round" stroke-width="8.1731"/>
     <rect transform="scale(1,-1)" x="94.462" y="-817.77" width="16.08" height="3" ry=".14837" fill="#045"/>
     <rect transform="scale(1,-1)" x="94.462" y="-826.53" width="16.08" height="3" ry=".14837" fill="#045"/>
     <rect transform="scale(1,-1)" x="94.462" y="-844.07" width="16.08" height="3" ry=".14837" fill="#045"/>
     <rect transform="scale(1,-1)" x="94.462" y="-852.83" width="16.08" height="3" ry=".14837" fill="#045"/>
    </g>
    <g transform="matrix(.34285 -.13481 -.13617 -.33944 449.9 947.25)" fill="#0a8" stroke="#045" stroke-linecap="round">
     <rect x="-163.11" y="733.92" width="15.534" height="110.68" ry=".15364" stroke-width="8.1731"/>
     <path transform="matrix(-.7094 .27953 -.20653 -.96014 -64.955 1731)" d="m-120.86 883.93-17.267-4.6266 12.64-12.64z" stroke-width="9.5084"/>
    </g>
    <path transform="matrix(-.2617 .10209 -.07619 -.35067 332.57 1034.7)" d="m-120.86 883.93-17.267-4.6266 12.64-12.64z" fill="#0a8" stroke="#045" stroke-linecap="round" stroke-width="9.5084"/>
    <g transform="matrix(.30815 0 0 .30576 210.19 470.2)" fill="#006680" stroke="#045" stroke-linecap="round">
     <rect transform="matrix(-.92966 -.36842 .36982 -.9291 0 0)" x="-549.37" y="-661.9" width="18.59" height="132.25" ry=".18358" stroke-width="9.7734"/>
     <path transform="matrix(.91278 .0024594 -.19448 1.1569 597.31 -332.77)" d="m-120.86 883.93-17.267-4.6266 12.64-12.64z" stroke-width="9.5084"/>
    </g>
    <path d="m280.64 700.04h38.602c0.0216 0 0.0404 0.0223 0.039 0.0498l-2.3674 49.301c-2.5071 0-2.468-0.0498 0 0l-33.72 0.0958c2.7574-0.0958 2.8902-0.11799-0.039-0.0498l-2.5537-49.347c-1e-3 -0.0276 0.0174-0.0498 0.039-0.0498z" fill="#0a8" stroke="#045" stroke-linecap="round" stroke-width="3"/>
    <g transform="matrix(.30815 0 0 .30576 210.19 470.2)" fill="#0cf" stroke="#045" stroke-linecap="round">
     <rect transform="matrix(-.018328 -.99983 .99986 -.01682 0 0)" x="-927.38" y="253.57" width="18.59" height="132.25" ry=".18358" stroke-width="9.7734"/>
     <path transform="matrix(.34951 .84322 -1.1425 .26642 1459.5 785.48)" d="m-120.86 883.93-17.267-4.6266 12.64-12.64z" stroke-width="9.5084"/>
    </g>
    <g transform="matrix(0 -.36523 -.3689 0 598.2 697.68)" stroke="#045" stroke-linecap="round">
     <rect x="-143.69" y="763.04" width="15.534" height="110.68" ry=".15364" fill="#045" stroke-width="8.1731"/>
     <path transform="matrix(-.7094 .47996 -.20653 -1.6486 -45.538 2392.5)" d="m-120.86 883.93-17.267-4.6266 12.64-12.64z" fill="#0a8" stroke-width="7.2564"/>
     <rect x="-143.69" y="763.04" width="15.534" height="32.039" ry=".044475" fill="#006680" stroke-width="8.1731"/>
     <rect x="-125.24" y="780.52" width="5.8252" height="35.922" ry=".044475" fill="#0cf" stroke-width="8.1731"/>
     <rect x="-127.13" y="762.69" width="9.7087" height="21.359" ry=".026445" fill="#0cf" stroke-width="8.1731"/>
    </g>
    <g transform="matrix(.30815 0 0 .30576 210.19 470.2)" fill="#0cf" stroke="#045" stroke-linecap="round" stroke-width="9.7734">
     <g transform="matrix(.66555 .74635 -.74635 .66555 733.02 184.91)">
      <path d="m155.67 902.62c4.0736 4.0715 11.853 11.388 6.1602 14.301-5.6928 2.9135-8.9482-5.2068-13.022-9.2783-4.0736-4.0715-41.152-32.978-35.459-35.892s38.247 26.797 42.32 30.869z" stroke-width="9.7734"/>
      <ellipse transform="matrix(.99996 .0083998 -.01642 .99987 0 0)" cx="181.24" cy="916.12" rx="11.65" ry="8.333" stroke-width="9.7735"/>
     </g>
     <path d="m143.57 894.04c-5.4677 3.1262-15.735 8.6548-11.364 12.565 4.3711 3.9105 10.59-3.2711 16.058-6.3973 5.4677-3.1262 52.136-23.736 47.765-27.647s-46.992 18.353-52.459 21.479z" stroke-width="9.7734"/>
     <ellipse transform="matrix(-.98188 -.18948 -.35298 .93563 0 0)" cx="-445.85" cy="879.53" rx="11.456" ry="8.5982" stroke-width="9.8447"/>
     <ellipse transform="matrix(.99996 .0083998 -.01642 .99987 0 0)" cx="174.88" cy="889.72" rx="5.825" ry="4.1665" stroke-width="9.7735"/>
    </g>
   </g>
   <rect x="137.2" y="737.21" width="48.715" height="12.924" ry="6.4621" fill="#006680" stroke="#045" stroke-linecap="round" stroke-width="3"/>
   <rect transform="matrix(0,1,1,0,0,0)" x="687.5" y="157.08" width="48.715" height="8.9475" ry="4.4737" fill="#006680" stroke="#045" stroke-linecap="round" stroke-width="3"/>
   <rect transform="matrix(-.69417 .71981 .71981 .69417 0 0)" x="340.47" y="591.14" width="48.715" height="8.9475" ry="4.4737" fill="#006680" stroke="#045" stroke-linecap="round" stroke-width="3"/>
   <path d="m229.85 666.64-26.602 26.553c-0.93301 0.93129-2.8067 1.2817-3.2776 0.15615l-12.065-28.839c-0.47089-1.1256-0.90098-2.3377 0.0906-3.2059l12.714-11.133c0.99163-0.86831 2.1835-0.72184 3.2776-0.15615l25.952 13.419c1.094 0.56569 2.1604 1.2764 1.1595 2.1343z" fill="#006680" stroke="#045" stroke-linecap="round" stroke-width="3"/>
   <circle cx="195.79" cy="655.78" r="10.936" fill="#006680" stroke="#045" stroke-linecap="round" stroke-width="3"/>
   <g transform="translate(1.3617 42.63)" stroke-linecap="round">
    <rect x="227.23" y="778.49" width="153.31" height="45.807" ry=".46392" fill="#0a8" stroke="#045" stroke-width="5"/>
    <rect x="246.79" y="788.93" width="114.19" height="24.929" ry=".25248" fill="#5df" stroke="#045" stroke-width="5"/>
    <rect x="293.51" y="795.31" width="20.742" height="12.168" ry=".12324" fill="#045" stroke="#000"/>
   </g>
   <g transform="translate(1.3617 -3.1771)" stroke-linecap="round">
    <rect x="227.23" y="778.49" width="153.31" height="45.807" ry=".46392" fill="#0a8" stroke="#045" stroke-width="5"/>
    <rect x="246.79" y="788.93" width="114.19" height="24.929" ry=".25248" fill="#5df" stroke="#045" stroke-width="5"/>
    <rect x="293.51" y="795.31" width="20.742" height="12.168" ry=".12324" fill="#045" stroke="#000"/>
   </g>
   <g transform="translate(1.3617 88.437)" stroke-linecap="round">
    <rect x="227.23" y="778.49" width="153.31" height="45.807" ry=".46392" fill="#0a8" stroke="#045" stroke-width="5"/>
    <rect x="246.79" y="788.93" width="114.19" height="24.929" ry=".25248" fill="#5df" stroke="#045" stroke-width="5"/>
    <rect x="293.51" y="795.31" width="20.742" height="12.168" ry=".12324" fill="#045" stroke="#000"/>
   </g>
  </g>
 </g>
</svg>
